<svg xmlns="http://www.w3.org/2000/svg" xmlns:xlink="http://www.w3.org/1999/xlink" width="1024" zoomAndPan="magnify" viewBox="0 0 768 767.999994" height="1024" preserveAspectRatio="xMidYMid meet" version="1.0"><defs><clipPath id="b72ef4bc10"><path d="M 68.875 103.867188 L 478.375 103.867188 L 478.375 664.117188 L 68.875 664.117188 Z M 68.875 103.867188 " clip-rule="nonzero"/></clipPath><clipPath id="1ce22a9d93"><path d="M 511.617188 103.867188 L 699 103.867188 L 699 291.367188 L 511.617188 291.367188 Z M 511.617188 103.867188 " clip-rule="nonzero"/></clipPath><clipPath id="b6a4b672bb"><path d="M 260.757812 103.867188 L 478.625 103.867188 L 478.625 289.015625 L 260.757812 289.015625 Z M 260.757812 103.867188 " clip-rule="nonzero"/></clipPath></defs><rect x="-76.8" width="921.6" fill="#ffffff" y="-76.799999" height="921.599993" fill-opacity="1"/><rect x="-76.8" width="921.6" fill="#ffffff" y="-76.799999" height="921.599993" fill-opacity="1"/><g clip-path="url(#b72ef4bc10)"><path fill="#000000" d="M 479.394531 434.664062 L 479.394531 288.742188 L 598.488281 288.742188 L 751.5625 101.367188 C 688.335938 101.367188 625.105469 101.367188 561.875 101.367188 C 480.65625 101.367188 487.703125 92.953125 427.949219 152.707031 L 291.914062 288.742188 L 68.875 288.742188 L 68.875 101.367188 L 291.914062 101.367188 L 291.914062 664.121094 Z M 479.394531 434.664062 " fill-opacity="1" fill-rule="evenodd"/></g><path fill="#000000" d="M 693.859375 108.539062 L 515.707031 108.539062 L 515.707031 286.695312 Z M 693.859375 108.539062 " fill-opacity="1" fill-rule="nonzero"/><g clip-path="url(#1ce22a9d93)"><path fill="#000000" d="M 511.617188 286.695312 L 511.617188 108.539062 C 511.617188 105.621094 513.371094 103.867188 515.707031 103.867188 L 693.859375 103.867188 C 695.613281 103.867188 697.367188 105.035156 697.949219 106.789062 C 699.117188 107.957031 698.535156 110.292969 697.367188 111.460938 L 519.210938 289.613281 C 518.042969 290.78125 516.289062 291.367188 514.539062 290.78125 C 512.785156 289.613281 511.617188 288.445312 511.617188 286.695312 Z M 520.378906 112.628906 L 520.378906 275.597656 L 683.347656 112.628906 Z M 520.378906 112.628906 " fill-opacity="1" fill-rule="nonzero"/></g><g clip-path="url(#b6a4b672bb)"><path fill="#000000" d="M 260.757812 103.867188 L 478.453125 103.867188 L 478.453125 289.015625 L 260.757812 289.015625 Z M 260.757812 103.867188 " fill-opacity="1" fill-rule="nonzero"/></g></svg>