<svg xmlns="http://www.w3.org/2000/svg" xmlns:xlink="http://www.w3.org/1999/xlink" width="1024" zoomAndPan="magnify" viewBox="0 0 768 767.999994" height="1024" preserveAspectRatio="xMidYMid meet" version="1.0"><defs><clipPath id="d6f0a904fa"><path d="M 68.875 103.867188 L 478.375 103.867188 L 478.375 664.117188 L 68.875 664.117188 Z M 68.875 103.867188 " clip-rule="nonzero"/></clipPath><clipPath id="321208f905"><path d="M 511.617188 103.867188 L 699 103.867188 L 699 291 L 511.617188 291 Z M 511.617188 103.867188 " clip-rule="nonzero"/></clipPath><clipPath id="3fd34d13a2"><path d="M 260.757812 103.867188 L 478.625 103.867188 L 478.625 289.015625 L 260.757812 289.015625 Z M 260.757812 103.867188 " clip-rule="nonzero"/></clipPath></defs><rect x="-76.8" width="921.6" fill="#ffffff" y="-76.799999" height="921.599993" fill-opacity="1"/><rect x="-76.8" width="921.6" fill="#000000" y="-76.799999" height="921.599993" fill-opacity="1"/><g clip-path="url(#d6f0a904fa)"><path fill="#ffffff" d="M 479.394531 434.664062 L 479.394531 288.742188 L 598.488281 288.742188 L 751.5625 101.367188 C 688.335938 101.367188 625.105469 101.367188 561.875 101.367188 C 480.65625 101.367188 487.703125 92.953125 427.949219 152.707031 L 291.914062 288.742188 L 68.875 288.742188 L 68.875 101.367188 L 291.914062 101.367188 L 291.914062 664.121094 Z M 479.394531 434.664062 " fill-opacity="1" fill-rule="evenodd"/></g><path fill="#ffffff" d="M 693.863281 108.539062 L 515.765625 108.539062 L 515.765625 286.636719 Z M 693.863281 108.539062 " fill-opacity="1" fill-rule="nonzero"/><g clip-path="url(#321208f905)"><path fill="#ffffff" d="M 511.675781 286.636719 L 511.675781 108.539062 C 511.675781 105.617188 513.429688 103.867188 515.765625 103.867188 L 693.863281 103.867188 C 695.613281 103.867188 697.367188 105.035156 697.949219 106.785156 C 699.117188 107.953125 698.535156 110.289062 697.367188 111.457031 L 519.265625 289.558594 C 518.101562 290.726562 516.347656 291.308594 514.597656 290.726562 C 512.84375 289.558594 511.675781 288.390625 511.675781 286.636719 Z M 520.433594 112.625 L 520.433594 275.542969 L 683.351562 112.625 Z M 520.433594 112.625 " fill-opacity="1" fill-rule="nonzero"/></g><g clip-path="url(#3fd34d13a2)"><path fill="#ffffff" d="M 260.757812 103.867188 L 478.453125 103.867188 L 478.453125 289.015625 L 260.757812 289.015625 Z M 260.757812 103.867188 " fill-opacity="1" fill-rule="nonzero"/></g></svg>